<svg width="211" height="211" viewBox="0 0 211 211" fill="none" xmlns="http://www.w3.org/2000/svg">
<circle cx="105" cy="106" r="92.5" stroke="#FF725E"/>
<circle cx="105.5" cy="105.5" r="105" stroke="#FF725E"/>
<g clip-path="url(#clip0_405_3)">
<path d="M138.401 86.5303C132.806 72.7096 124.218 63.129 119.185 65.0639L119.247 65.039L113.541 67.349C113.541 67.349 104.215 82.844 86.5244 94.6021C87.1963 97.9582 88.3246 101.821 90.0571 106.101C91.7896 110.381 93.6682 113.945 95.5183 116.819C116.411 112.958 133.885 117.604 133.885 117.604L139.591 115.294L139.528 115.314C144.494 113.201 143.996 100.351 138.399 86.5259L138.401 86.5303ZM136.085 112.291C135.438 112.553 134.471 112.165 133.948 111.911C132.688 111.293 131.242 110.126 129.763 108.536C126.459 104.97 123.289 99.6837 120.844 93.6429C118.399 87.6021 116.992 81.5967 116.891 76.7387C116.841 74.5655 117.073 72.7193 117.548 71.3995C117.742 70.8545 118.172 69.9018 118.819 69.6398C119.466 69.3778 120.433 69.7654 120.956 70.0199C122.215 70.6374 123.662 71.8046 125.142 73.3985C128.446 76.9651 131.616 82.2513 134.062 88.2921C136.507 94.3329 137.913 100.338 138.014 105.196C138.064 107.369 137.833 109.216 137.356 110.531C137.161 111.076 136.732 112.029 136.085 112.291ZM85.2799 108.035C83.8326 104.46 82.6923 100.883 81.8887 97.4677C78.8123 99.2358 76.0556 100.654 72.5201 102.085L67.9058 103.953L66.7247 112.011L69.1808 118.078L75.6343 123.044L80.2485 121.176C83.784 119.745 86.7511 118.846 90.191 117.976C88.302 114.79 86.659 111.463 85.2764 108.026L85.2799 108.035ZM99.21 119.445L89.7216 121.323L104.308 141.164C105.062 142.191 106.431 142.308 107.349 141.424L114.183 134.86C114.399 134.662 114.57 134.419 114.683 134.148C114.797 133.877 114.85 133.585 114.839 133.291C114.829 132.998 114.754 132.71 114.622 132.448C114.489 132.186 114.301 131.956 114.071 131.774L99.2082 119.44L99.21 119.445ZM130.779 99.1833C130.528 99.2849 130.154 99.1339 129.955 99.035C129.347 98.6982 128.801 98.2584 128.343 97.7354C127.069 96.3602 125.849 94.3224 124.906 91.9933C123.963 89.6642 123.422 87.3519 123.38 85.4777C123.364 84.6389 123.45 83.9276 123.635 83.4223C123.709 83.213 123.872 82.8445 124.123 82.7429C124.374 82.6413 124.748 82.7923 124.947 82.8912C125.433 83.1299 125.99 83.581 126.559 84.1908C127.833 85.5659 129.053 87.6037 129.996 89.9329C130.939 92.262 131.48 94.5743 131.522 96.4485C131.558 97.1433 131.472 97.8391 131.267 98.5039C131.193 98.7132 131.03 99.0817 130.779 99.1833Z" fill="#FF725E"/>
</g>
<defs>
<clipPath id="clip0_405_3">
<rect width="76" height="76" fill="white" transform="translate(56 85.5182) rotate(-22.0392)"/>
</clipPath>
</defs>
</svg>
